{"title":"Its.Alive.1974.DVDRip.Swesub.Xvid","uid":8524103,"size":733464986,"categoryP":"video","categoryS":"movies","magnet":"?xt=urn:btih:ec26a03c84c5558680328f8e63422b8aabe124dc&amp;dn=Its.Alive.1974.DVDRip.Swesub.Xvid&amp;tr=udp%3A%2F%2Ftracker.openbittorrent.com%3A80&amp;tr=udp%3A%2F%2Fopen.demonii.com%3A1337&amp;tr=udp%3A%2F%2Ftracker.coppersurfer.tk%3A6969&amp;tr=udp%3A%2F%2Fexodus.desync.com%3A6969","seeders":0,"leechers":1,"uploader":"nordjok","files":-1,"time":1369986424,"description":"\n                             Swedish Hardsub\n\n &lt;a href=&quot;\nhttp://www.imdb.com/title/tt0071675/&quot; rel=&quot;nofollow&quot; target=&quot;_NEW&quot;&gt;\nhttp://www.imdb.com/title/tt0071675/&lt;/a&gt;\n\n\nGeneral\nComplete name                       : Its.Alive.1974.DVDRip.Swesub.Xvid.avi\nFormat                              : AVI\nFormat/Info                         : Audio Video Interleave\nFile size                           : 699 MiB\nDuration                            : 1h 27mn\n\n\nVideo\nID                                  : 0\nFormat                              : MPEG-4 Visual\nFormat profile                      : Advanced Simple@L5\nFormat settings, BVOP               : 2\nFormat settings, QPel               : No\nFormat settings, GMC                : No warppoints\nFormat settings, Matrix             : Default (H.263)\nCodec ID                            : XVID\nCodec ID/Hint                       : XviD\nDuration                            : 1h 27mn\nBit rate                            : 981 Kbps\nWidth                               : 656 pixels\nHeight                              : 368 pixels\nDisplay aspect ratio                : 16:9\nFrame rate                          : 25.000 fps\nColor space                         : YUV\nChroma subsampling                  : 4:2:0\nBit depth                           : 8 bits\nScan type                           : Progressive\nCompression mode                    : Lossy\nBits/(Pixel*Frame)                  : 0.163\nStream size                         : 612 MiB (88%)\nWriting library                     : XviD 73\n\nAudio\nID                                  : 1\nFormat                              : MPEG Audio\nFormat version                      : Version 1\nFormat profile                      : Layer 3\nCodec ID                            : 55\nCodec ID/Hint                       : MP3\nDuration                            : 1h 27mn\nBit rate mode                       : Variable\nBit rate                            : 127 Kbps\nMinimum bit rate                    : 32.0 Kbps\nChannel(s)                          : 2 channels\nSampling rate                       : 48.0 KHz\nCompression mode                    : Lossy\nStream size                         : 79.2 MiB (11%)\nAlignment                           : Aligned on interleaves\nInterleave, duration                : 24 ms (0.60 video frame)\nInterleave, preload duration        : 152 ms\nWriting library                     : LAME3.99r\nEncoding settings                   : -m s -V 5 -q 0 -lowpass 17 --vbr-new -b 32\n\n","torrent":{"xt":"urn:btih:ec26a03c84c5558680328f8e63422b8aabe124dc","amp;dn":"Its.Alive.1974.DVDRip.Swesub.Xvid","amp;tr":["udp%3A%2F%2Ftracker.openbittorrent.com%3A80","udp%3A%2F%2Fopen.demonii.com%3A1337","udp%3A%2F%2Ftracker.coppersurfer.tk%3A6969","udp%3A%2F%2Fexodus.desync.com%3A6969"],"infoHash":"ec26a03c84c5558680328f8e63422b8aabe124dc","infoHashBuffer":{"type":"Buffer","data":[236,38,160,60,132,197,85,134,128,50,143,142,99,66,43,138,171,225,36,220]},"announce":[],"urlList":[]}}